<svg width="99" height="98" viewBox="0 0 99 98" fill="none" xmlns="http://www.w3.org/2000/svg">
<rect width="99" height="97.3771" rx="21.0984" fill="#006ED2"/>
<path fill-rule="evenodd" clip-rule="evenodd" d="M60.382 52.9562L57.0447 51.2242C56.6243 51.006 56.1041 51.107 55.8022 51.4653C55.6196 51.6821 55.4237 51.9048 55.2814 52.0404C54.2931 52.9818 53.1267 53.5132 51.6403 53.5132C48.7796 53.5132 47.1615 51.414 47.1615 49.2441C47.1615 46.488 49.7199 43.8706 52.8014 43.8706C54.2792 43.8706 55.5076 44.4997 56.3077 45.4586C56.5966 45.8049 57.1003 45.8994 57.5119 45.7024C58.5269 45.2164 61.2529 43.9031 61.3532 43.8543C61.4366 43.8138 61.4703 43.7153 61.4285 43.6343C61.3822 43.5445 61.3308 43.4449 61.3248 43.4341C59.8563 40.7983 56.9019 38.9594 53.2987 38.9594C47.0508 38.9594 41.82 44.1269 41.82 49.8756C41.82 54.6924 45.6573 58.4244 50.8647 58.4244C54.6958 58.4244 58.1999 56.3851 60.3055 53.3917C60.3368 53.3473 60.3936 53.2619 60.4437 53.1863C60.4962 53.1067 60.4678 53.0007 60.382 52.9562V52.9562ZM78.5704 39.8735C78.5312 39.592 78.2839 39.3819 77.9915 39.3819L71.3227 39.3818C70.9893 39.3818 70.6827 39.5593 70.5239 39.8442L60.513 57.7989C60.4544 57.904 60.5327 58.0318 60.6556 58.0318H65.3276C65.6624 58.0318 65.97 57.853 66.1282 57.5663L73.694 43.8628H73.9305L74.7807 50.5649C74.7926 50.659 74.7171 50.7419 74.6197 50.7419H71.916C71.1962 50.7419 70.8636 51.611 71.4083 52.0682L74.4394 54.6125C75.0551 55.1293 75.4512 55.8499 75.5507 56.6347L75.6648 57.5335C75.7009 57.8181 75.9495 58.0318 76.2445 58.0318H80.9085C81.0067 58.0318 81.0824 57.9476 81.0693 57.853L78.5704 39.8735ZM34.5892 48.683C34.2582 51.3457 32.0298 53.5042 29.2629 53.5042C26.4961 53.5042 24.5217 51.3457 24.8528 48.683C25.1839 46.0202 27.6953 43.8615 30.462 43.8615C33.2288 43.8615 34.9203 46.0202 34.5892 48.683V48.683ZM30.9541 38.9507C25.3273 38.9507 20.221 43.3081 19.5488 48.6832C18.8768 54.0583 22.8932 58.4157 28.5201 58.4157C34.1469 58.4157 39.2532 54.0583 39.9253 48.6832C40.5975 43.3081 36.5809 38.9507 30.9541 38.9507V38.9507Z" fill="white"/>
</svg>
