<?xml version="1.0" encoding="utf-8"?>
<!-- Generator: Adobe Illustrator 16.0.0, SVG Export Plug-In . SVG Version: 6.00 Build 0)  -->
<!DOCTYPE svg PUBLIC "-//W3C//DTD SVG 1.1//EN" "http://www.w3.org/Graphics/SVG/1.1/DTD/svg11.dtd">
<svg version="1.1" id="Layer_1" xmlns="http://www.w3.org/2000/svg" xmlns:xlink="http://www.w3.org/1999/xlink" x="0px" y="0px"
	 width="116.667px" height="51.667px" viewBox="133.5 54.833 116.667 51.667" enable-background="new 133.5 54.833 116.667 51.667"
	 xml:space="preserve">
<path fill="#006ED2" d="M161.049,62.706c-9.29,0-17.721,7.402-18.831,16.532c-1.109,9.131,5.522,16.533,14.812,16.533
	s17.721-7.402,18.831-16.533C176.97,70.108,170.339,62.706,161.049,62.706 M167.05,79.238c-0.547,4.523-4.226,8.19-8.794,8.19
	s-7.828-3.667-7.281-8.19c0.547-4.523,4.693-8.19,9.261-8.19S167.597,74.715,167.05,79.238 M239.665,64.274
	c-0.064-0.479-0.474-0.835-0.956-0.835h-11.01c-0.551,0-1.057,0.301-1.319,0.786l-16.528,30.5c-0.097,0.178,0.032,0.396,0.235,0.396
	h7.714c0.553,0,1.061-0.305,1.321-0.792l12.492-23.277h0.39l1.404,11.385c0.02,0.16-0.105,0.301-0.266,0.301h-4.464
	c-1.188,0-1.738,1.477-0.839,2.253l5.005,4.321c1.017,0.879,1.671,2.104,1.835,3.436l0.188,1.527
	c0.061,0.482,0.471,0.846,0.958,0.846h7.7c0.162,0,0.287-0.143,0.266-0.304L239.665,64.274z M209.636,86.498l-5.511-2.942
	c-0.694-0.371-1.553-0.199-2.051,0.409c-0.302,0.369-0.625,0.746-0.86,0.977c-1.632,1.6-3.558,2.502-6.011,2.502
	c-4.724,0-7.396-3.565-7.396-7.252c0-4.682,4.224-9.128,9.312-9.128c2.44,0,4.469,1.068,5.789,2.697
	c0.478,0.589,1.309,0.749,1.988,0.414c1.676-0.825,6.178-3.056,6.343-3.139c0.138-0.069,0.193-0.237,0.124-0.374
	c-0.076-0.152-0.161-0.321-0.171-0.34c-2.425-4.478-7.303-7.602-13.252-7.602c-10.315,0-18.952,8.778-18.952,18.543
	c0,8.183,6.336,14.522,14.933,14.522c6.325,0,12.11-3.464,15.588-8.549c0.051-0.076,0.145-0.221,0.228-0.349
	C209.824,86.754,209.777,86.573,209.636,86.498"/>
<rect x="-228" y="-198.28" fill="none" width="841.89" height="595.28"/>
</svg>
