<svg width="22" height="22" viewBox="0 0 22 22" fill="none" xmlns="http://www.w3.org/2000/svg">
<path d="M2.35924 1.30927C2.13374 1.54876 2 1.92044 2 2.40176V19.5985C2 20.0806 2.13374 20.4515 2.35924 20.691L2.41678 20.7469L12.0509 11.1136V11.0001V10.8858L2.41678 1.25251L2.35924 1.30927Z" fill="url(#paint0_linear_8891_43797)"/>
<path d="M12.0508 10.886V11.0003V11.1139L15.2614 14.3268L15.3345 14.2856L19.1392 12.1239C20.2254 11.5058 20.2254 10.4949 19.1392 9.87831L15.3345 7.71589L15.2622 7.67468L12.0508 10.886Z" fill="url(#paint1_linear_8891_43797)"/>
<path d="M2.35919 20.691C2.71765 21.0697 3.30938 21.1172 3.97576 20.7393L15.3345 14.2847L12.0508 11.0002L2.35919 20.691Z" fill="url(#paint2_linear_8891_43797)"/>
<path d="M2.35919 1.30952L12.0508 11.0004L15.3345 7.71591L3.97576 1.26209C3.66318 1.08403 3.36692 1.00005 3.1041 1.00005C2.80552 1.00005 2.5497 1.10813 2.35919 1.30952" fill="url(#paint3_linear_8891_43797)"/>
<defs>
<linearGradient id="paint0_linear_8891_43797" x1="11.1961" y1="2.22036" x2="-1.85337" y2="15.2698" gradientUnits="userSpaceOnUse">
<stop stop-color="#00A0FF"/>
<stop offset="0.00657445" stop-color="#00A1FF"/>
<stop offset="0.2601" stop-color="#00BEFF"/>
<stop offset="0.5122" stop-color="#00D2FF"/>
<stop offset="0.7604" stop-color="#00DFFF"/>
<stop offset="1" stop-color="#00E3FF"/>
</linearGradient>
<linearGradient id="paint1_linear_8891_43797" x1="20.5539" y1="11.0007" x2="1.73909" y2="11.0007" gradientUnits="userSpaceOnUse">
<stop stop-color="#FFE000"/>
<stop offset="0.4087" stop-color="#FFBD00"/>
<stop offset="0.7754" stop-color="#FFA500"/>
<stop offset="1" stop-color="#FF9C00"/>
</linearGradient>
<linearGradient id="paint2_linear_8891_43797" x1="13.5499" y1="12.7848" x2="-4.14621" y2="30.4809" gradientUnits="userSpaceOnUse">
<stop stop-color="#FF3A44"/>
<stop offset="1" stop-color="#C31162"/>
</linearGradient>
<linearGradient id="paint3_linear_8891_43797" x1="-0.0805648" y1="-4.4148" x2="7.8215" y2="3.48726" gradientUnits="userSpaceOnUse">
<stop stop-color="#32A071"/>
<stop offset="0.0685" stop-color="#2DA771"/>
<stop offset="0.4762" stop-color="#15CF74"/>
<stop offset="0.8009" stop-color="#06E775"/>
<stop offset="1" stop-color="#00F076"/>
</linearGradient>
</defs>
</svg>
